<?xml version="1.0" encoding="UTF-8"?>
<svg width="1800" height="980" viewBox="0 0 1800 980" xmlns="http://www.w3.org/2000/svg" role="img" aria-labelledby="title desc">
  <title id="title">Connector architecture (ETL to GCS Data Store)</title>
  <desc id="desc">Cloud Run connector architecture with five separate extract services, split identity sources, and ETL flow that attaches ACL metadata and stores mock documents in GCS.</desc>
  <defs>
    <style>
      .bg { fill: #ffffff; }
      .title { font: 700 34px Arial, sans-serif; fill: #202124; }
      .subtitle { font: 16px Arial, sans-serif; fill: #5f6368; }
      .lane { rx: 16; ry: 16; stroke-width: 2; }
      .box { rx: 14; ry: 14; stroke-width: 2; }
      .edge { stroke: #5f6368; stroke-width: 2.5; fill: none; marker-end: url(#arrow); }
      .label { font: 700 21px Arial, sans-serif; fill: #202124; }
      .text { font: 14px Arial, sans-serif; fill: #334155; }
      .small { font: 13px Arial, sans-serif; fill: #5f6368; }
    </style>
    <marker id="arrow" viewBox="0 0 10 10" refX="8" refY="5" markerWidth="8" markerHeight="8" orient="auto-start-reverse">
      <path d="M 0 0 L 10 5 L 0 10 z" fill="#5f6368" />
    </marker>
  </defs>

  <rect class="bg" x="0" y="0" width="1800" height="980" />
  <text class="title" x="50" y="60">Connector Architecture (ETL to GCS Data Store)</text>
  <text class="subtitle" x="50" y="92">Cloud Run split services: five Extract workers + Transform + Load, with separate Okta / Azure AD / LDAP identity sources</text>

  <rect class="lane" x="30" y="120" width="300" height="770" fill="#ffffff" stroke="#dadce0" />
  <text class="label" x="55" y="155">5 Source Systems</text>

  <rect class="box" x="55" y="190" width="250" height="68" fill="#ffffff" stroke="#dadce0" />
  <text class="text" x="78" y="231">ServiceNow</text>
  <rect class="box" x="55" y="275" width="250" height="68" fill="#ffffff" stroke="#dadce0" />
  <text class="text" x="78" y="316">Workday</text>
  <rect class="box" x="55" y="360" width="250" height="68" fill="#ffffff" stroke="#dadce0" />
  <text class="text" x="78" y="401">Compliance System</text>
  <rect class="box" x="55" y="445" width="250" height="68" fill="#ffffff" stroke="#dadce0" />
  <text class="text" x="78" y="486">SharePoint</text>
  <rect class="box" x="55" y="530" width="250" height="68" fill="#ffffff" stroke="#dadce0" />
  <text class="text" x="78" y="571">Confluence</text>

  <rect class="lane" x="360" y="120" width="860" height="770" fill="#eef8f0" stroke="#34a853" />
  <text class="label" x="385" y="155">Cloud Run Apps</text>

  <text class="small" x="390" y="185">Extract (5 split services)</text>
  <rect class="box" x="390" y="205" width="350" height="64" fill="#ffffff" stroke="#34a853" />
  <text class="text" x="410" y="244">Extract Service: ServiceNow (REST API)</text>
  <rect class="box" x="390" y="285" width="350" height="64" fill="#ffffff" stroke="#34a853" />
  <text class="text" x="410" y="324">Extract Service: Workday (REST API)</text>
  <rect class="box" x="390" y="365" width="350" height="64" fill="#ffffff" stroke="#34a853" />
  <text class="text" x="410" y="404">Extract Service: Compliance (SOAP)</text>
  <rect class="box" x="390" y="445" width="350" height="64" fill="#ffffff" stroke="#34a853" />
  <text class="text" x="410" y="484">Extract Service: SharePoint (Microsoft Graph)</text>
  <rect class="box" x="390" y="525" width="350" height="64" fill="#ffffff" stroke="#34a853" />
  <text class="text" x="410" y="564">Extract Service: Confluence (REST API)</text>

  <text class="small" x="780" y="185">Transform + Load</text>
  <rect class="box" x="780" y="300" width="410" height="120" fill="#ffffff" stroke="#1a73e8" />
  <text class="label" x="805" y="336">Transform Service</text>
  <text class="text" x="805" y="362">Normalize into common mock document schema</text>
  <text class="text" x="805" y="386">Prepare ACL candidate fields and metadata</text>

  <rect class="box" x="780" y="455" width="410" height="120" fill="#ffffff" stroke="#ea4335" />
  <text class="label" x="805" y="490">Load Service</text>
  <text class="text" x="805" y="516">Attach/merge ACL metadata into load payload</text>
  <text class="text" x="805" y="540">Scheduled / incremental / full load to GCS</text>

  <rect class="box" x="780" y="610" width="410" height="90" fill="#ffffff" stroke="#9aa0a6" />
  <text class="text" x="805" y="646">Load State Cache: cursor, checkpoint, retry state</text>

  <rect class="lane" x="1240" y="120" width="260" height="770" fill="#fef7e0" stroke="#fbbc04" />
  <text class="label" x="1265" y="155">Identity Sources</text>

  <rect class="box" x="1265" y="220" width="210" height="70" fill="#fff8dc" stroke="#fbbc04" />
  <text class="text" x="1288" y="261">Okta SSO</text>
  <rect class="box" x="1265" y="310" width="210" height="70" fill="#fff8dc" stroke="#fbbc04" />
  <text class="text" x="1288" y="351">Azure AD</text>
  <rect class="box" x="1265" y="400" width="210" height="70" fill="#fff8dc" stroke="#fbbc04" />
  <text class="text" x="1288" y="441">LDAP</text>
  <rect class="box" x="1265" y="520" width="210" height="90" fill="#f8f9fa" stroke="#9aa0a6" />
  <text class="text" x="1288" y="556">Secret Manager</text>
  <text class="small" x="1288" y="579">connector credentials</text>

  <rect class="lane" x="1520" y="120" width="250" height="770" fill="#e8f0fe" stroke="#4285f4" />
  <text class="label" x="1545" y="155">GCS Data Store</text>
  <rect class="box" x="1545" y="300" width="200" height="90" fill="#ffffff" stroke="#4285f4" />
  <text class="text" x="1568" y="338">Cloud Storage API</text>
  <text class="small" x="1548" y="418">5 split buckets (per source)</text>
  <rect class="box" x="1548" y="435" width="194" height="52" fill="#ffffff" stroke="#4285f4" />
  <text class="small" x="1562" y="466">bucket-servicenow</text>
  <rect class="box" x="1548" y="499" width="194" height="52" fill="#ffffff" stroke="#4285f4" />
  <text class="small" x="1562" y="530">bucket-workday</text>
  <rect class="box" x="1548" y="563" width="194" height="52" fill="#ffffff" stroke="#4285f4" />
  <text class="small" x="1562" y="594">bucket-compliance</text>
  <rect class="box" x="1548" y="627" width="194" height="52" fill="#ffffff" stroke="#4285f4" />
  <text class="small" x="1562" y="658">bucket-sharepoint</text>
  <rect class="box" x="1548" y="691" width="194" height="52" fill="#ffffff" stroke="#4285f4" />
  <text class="small" x="1562" y="722">bucket-confluence</text>

  <path class="edge" d="M305 224 H390" />
  <path class="edge" d="M305 309 H390" />
  <path class="edge" d="M305 394 H390" />
  <path class="edge" d="M305 479 H390" />
  <path class="edge" d="M305 564 H390" />

  <path class="edge" d="M740 237 H780 V340" />
  <path class="edge" d="M740 317 H780 V340" />
  <path class="edge" d="M740 397 H780 V340" />
  <path class="edge" d="M740 477 H780 V340" />
  <path class="edge" d="M740 557 H780 V340" />

  <path class="edge" d="M1190 360 V515 H780" />
  <path class="edge" d="M1190 515 H1545" />
  <path class="edge" d="M1645 390 V435" />
  <path class="edge" d="M1645 390 V499" />
  <path class="edge" d="M1645 390 V563" />
  <path class="edge" d="M1645 390 V627" />
  <path class="edge" d="M1645 390 V691" />
  <path class="edge" d="M1190 515 V655 H780" />

  <path class="edge" d="M1475 255 H1190 V330" />
  <path class="edge" d="M1475 345 H1190 V330" />
  <path class="edge" d="M1475 435 H1190 V330" />
  <path class="edge" d="M1475 565 H740" />

  <rect x="30" y="910" width="1740" height="50" rx="12" ry="12" fill="#ffffff" stroke="#e0e0e0" stroke-width="2" />
  <text class="small" x="55" y="942">Connector scope only: Extract -> Transform -> Load to continuously store ACL-attached mock data in GCS.</text>
</svg>
