<?xml version="1.0" encoding="UTF-8"?>
<svg width="1500" height="760" viewBox="0 0 1500 760" xmlns="http://www.w3.org/2000/svg" role="img" aria-labelledby="title desc">
  <title id="title">Overall architecture (query and ACL-based retrieval scope)</title>
  <desc id="desc">User accesses Gemini Enterprise via SSO and retrieves ACL-filtered results from Data Store (GCS for mock). Connector ETL details are separated.</desc>
  <defs>
    <style>
      .bg { fill: #ffffff; }
      .title { font: 700 34px Arial, sans-serif; fill: #202124; }
      .subtitle { font: 16px Arial, sans-serif; fill: #5f6368; }
      .box { rx: 18; ry: 18; stroke-width: 2; }
      .edge { stroke: #5f6368; stroke-width: 3; fill: none; marker-end: url(#arrow); }
      .label { font: 700 22px Arial, sans-serif; fill: #202124; }
      .text { font: 15px Arial, sans-serif; fill: #334155; }
      .small { font: 13px Arial, sans-serif; fill: #5f6368; }
    </style>
    <marker id="arrow" viewBox="0 0 10 10" refX="8" refY="5" markerWidth="8" markerHeight="8" orient="auto-start-reverse">
      <path d="M 0 0 L 10 5 L 0 10 z" fill="#5f6368" />
    </marker>
  </defs>

  <rect class="bg" x="0" y="0" width="1500" height="760" />
  <text class="title" x="60" y="62">Overall Architecture (User Access to ACL-Based Retrieval)</text>
  <text class="subtitle" x="60" y="94">Scope: User access, SSO, Gemini Enterprise search, Data Store (GCS mock) retrieval with ACL filtering</text>

  <rect class="box" x="60" y="150" width="240" height="110" fill="#f8fbff" stroke="#5f9df7" />
  <text class="label" x="88" y="190">User / Browser</text>
  <text class="text" x="88" y="222">Search request</text>
  <text class="text" x="88" y="246">Session context</text>

  <rect class="box" x="340" y="140" width="320" height="130" fill="#fef7e0" stroke="#fbbc04" />
  <text class="label" x="366" y="180">Okta SSO / Federation</text>
  <text class="text" x="366" y="212">Okta SSO / LDAP / Azure AD federation</text>
  <text class="text" x="366" y="236">Token + identity attributes issued</text>

  <rect class="box" x="700" y="130" width="300" height="150" fill="#e8f0fe" stroke="#1a73e8" />
  <text class="label" x="726" y="170">Gemini Enterprise</text>
  <text class="text" x="726" y="202">Search entry point</text>
  <text class="text" x="726" y="226">Grounding and citation orchestration</text>
  <text class="text" x="726" y="250">Query routed to Agent Search</text>

  <rect class="box" x="1040" y="130" width="300" height="150" fill="#dbeafe" stroke="#4285f4" />
  <text class="label" x="1066" y="170">Agent Search</text>
  <text class="text" x="1066" y="202">Retrieval orchestration</text>
  <text class="text" x="1066" y="226">Applies ACL filter conditions</text>
  <text class="text" x="1066" y="250">Returns permitted results only</text>

  <rect class="box" x="720" y="360" width="360" height="180" fill="#e8f0fe" stroke="#1a73e8" />
  <text class="label" x="746" y="400">Data Store (GCS mock)</text>
  <text class="text" x="746" y="432">Stored mock documents and metadata</text>
  <text class="text" x="746" y="456">ACL fields: groups, departments, regions</text>
  <text class="text" x="746" y="480">positions, managers, user-specific rules</text>
  <text class="text" x="746" y="504">ACL-based retrieval at query time</text>

  <rect class="box" x="1120" y="380" width="280" height="140" fill="#f8f9fa" stroke="#9aa0a6" />
  <text class="label" x="1146" y="420">Scope Boundary</text>
  <text class="text" x="1146" y="452">ETL path is</text>
  <text class="text" x="1146" y="476">described in connector-architecture.svg</text>

  <path class="edge" d="M300 205 H340" />
  <path class="edge" d="M660 205 H700" />
  <path class="edge" d="M1000 205 H1040" />
  <path class="edge" d="M1190 280 V360 H1080" />
  <path class="edge" d="M860 360 V280 H1040" />

  <text class="small" x="442" y="124">SSO redirect / token issuance</text>
  <text class="small" x="1092" y="330">read with ACL filtering</text>

  <rect x="60" y="620" width="1380" height="100" rx="16" ry="16" fill="#ffffff" stroke="#e0e0e0" stroke-width="2" />
  <text class="text" x="90" y="660">This overall diagram intentionally focuses on user access and ACL-based retrieval from Data Store.</text>
  <text class="text" x="90" y="690">How data is fetched, transformed, and continuously synced into Data Store is separated into connector architecture.</text>
</svg>
